# xmcd
#
# Track frame offsets:
#	150
#	16323
#	34295
#	50217
#	65490
#	79664
#	95186
#	109013
#	120443
#	137839
#	153307
#	165669
#	179138
#	191281
#	206774
#	221181
#	237828
#	253284
#	270217
#	284571
#
# Disc length: 3950 seconds
#
# Revision: 0
# Processed by: cddbd v1.5.2PL0 Copyright (c) Steve Scherf et al.
# Submitted via: EZCDAudioConverter 2.4.0.1
#
DISCID=300f6c14
DTITLE=Edson and Hudson - As Melhores
DYEAR=2003
DGENRE=Sertanejo
TTITLE0=Edson and Hudson - Ou Não
TTITLE1=Edson and Hudson - Meu Anjo (Angel) (Ao Vivo)
TTITLE2=Edson and Hudson - Porta Retrato
TTITLE3=Edson and Hudson - Quer Namorar Comigo?
TTITLE4=Edson and Hudson - Azul (Ao Vivo)
TTITLE5=Edson and Hudson Feat. Rionegro and Solimões - O Bicho Vai Pegar
TTITLE6=Edson and Hudson - Zoião
TTITLE7=Edson and Hudson -  Festa Louca (Ao Vivo)
TTITLE8=Edson and Hudson - Fogo do Desejo
TTITLE9=Edson and Hudson - Amor Sincero
TTITLE10=Edson and Hudson -  A Força da Paixão (Ao Vivo)
TTITLE11=Edson and Hudson - Me Bate, Me Xinga (Ao Vivo)
TTITLE12=Edson and Hudson - Mulher, Cerveja e Viola (Ao Vivo)
TTITLE13=Edson and Hudson - Volta
TTITLE14=Edson and Hudson - Te Quero Pra Mim (Ao Vivo)
TTITLE15=Edson and Hudson - Rabo de Saia
TTITLE16=Edson and Hudson - Deixa Eu Te Amar
TTITLE17=Edson and Hudson - Só Penso Em Você
TTITLE18=Edson and Hudson - É Amor Demais
TTITLE19=Edson and Hudson - Que Dor é Essa
EXTD=
EXTT0=
EXTT1=
EXTT2=
EXTT3=
EXTT4=
EXTT5=
EXTT6=
EXTT7=
EXTT8=
EXTT9=
EXTT10=
EXTT11=
EXTT12=
EXTT13=
EXTT14=
EXTT15=
EXTT16=
EXTT17=
EXTT18=
EXTT19=
PLAYORDER=
